# xmcd
#
# Track frame offsets:
#	150
#	16019
#	24365
#	39902
#	49842
#	58811
#	65533
#	75792
#	85687
#	101268
#	116520
#	127611
#	140234
#	156851
#	172644
#	185717
#	199612
#	208411
#	222493
#	233682
#
# Disc length: 3233 seconds
#
# Revision: 1
# Processed by: cddbd v1.5.1PL0 Copyright (c) Steve Scherf et al.
# Submitted via: audiograbber 1.83.01
#
DISCID=000c9f14
DTITLE=Boxcar Willie - King of The Road
DYEAR=1997
DGENRE=Country
TTITLE0=Your Cheatin Heart
TTITLE1=Hey Good Lookin
TTITLE2=Kawliga
TTITLE3=Move It On Over
TTITLE4=Hank And The Hobo
TTITLE5=I Saw The Light
TTITLE6=Heaven
TTITLE7=King Of The Road
TTITLE8=Wabash Cannonball
TTITLE9=Box Car Blues
TTITLE10=Wreck Of Old 97
TTITLE11=Peace In The Valley
TTITLE12=Mule Train
TTITLE13=Red River Valley
TTITLE14=San Antonio Rose
TTITLE15=You Are My Sunshine
TTITLE16=Don't Let The Stars Get You Eyes
TTITLE17=London Leaves
TTITLE18=Rolling In My Sweet Baby's Arms
TTITLE19=Divorce my COD
EXTD=
EXTT0=
EXTT1=
EXTT2=
EXTT3=
EXTT4=
EXTT5=
EXTT6=
EXTT7=
EXTT8=
EXTT9=
EXTT10=
EXTT11=
EXTT12=
EXTT13=
EXTT14=
EXTT15=
EXTT16=
EXTT17=
EXTT18=
EXTT19=
PLAYORDER=
